<?xml version="1.0" encoding="UTF-8"?>
<svg id="Livello_1" xmlns="http://www.w3.org/2000/svg" version="1.1" viewBox="0 0 116 274">
  <!-- Generator: Adobe Illustrator 30.5.1, SVG Export Plug-In . SVG Version: 2.1.4 Build 3)  -->
  <defs>
    <style>
      .st0 {
        fill: #c75f2e;
      }

      .st1 {
        fill: #22a0a5;
      }

      .st2 {
        fill: #e36fa8;
        isolation: isolate;
        opacity: .6;
      }

      .st3 {
        fill: #d6418c;
      }

      .st4 {
        opacity: .5;
      }

      .st5 {
        fill: #e0703a;
      }

      .st6 {
        fill: #b6326f;
      }
    </style>
  </defs>
  <path class="st5" d="M90,140l-6.5,30.1-21.5,99.9c-2.7,5.3-5.3,5.3-8,0l-4.1-19.2-.8-3.9-2.4-11.1h0s-1.5-6.8-1.5-6.8l-.9-4.2-.8-3.5-4.6-21.3-.3-1.6-.9-4-.8-3.5-4.5-20.8-6.5-30.1h64Z"/>
  <path class="st0" d="M58,140h32l-28,130c-2.7,5.3-5.3,5.3-8,0l4-130Z"/>
  <g class="st4">
    <rect class="st0" x="52.5" y="147.7" width="3" height="56.6" transform="translate(-108.6 89.7) rotate(-45)"/>
    <polygon class="st0" points="75.1 157.1 56.1 176 55.8 176.4 54 178.1 46.3 185.8 37.7 194.4 37 190.9 43.7 184.2 51.9 176 52.2 175.7 54 173.9 72.9 154.9 75.1 157.1"/>
    <polygon class="st0" points="38.9 200.1 51.9 213 54 215.1 55.6 216.8 67.9 229.1 70.1 226.9 56.1 213 55.8 212.6 54 210.9 40.1 196.9 38.6 198.4 38.9 200.1"/>
    <polygon class="st0" points="70.1 199.1 44.3 224.9 43.5 221.4 67.9 196.9 70.1 199.1"/>
    <polygon class="st0" points="65.2 255.1 62.8 256.9 54.7 246.4 54 245.5 52.1 243 46.7 235.9 46.7 235.9 45.2 229.1 54 240.5 54.9 241.7 55.9 243 65.2 255.1"/>
    <polygon class="st0" points="49.9 250.8 54 245.5 54.8 244.4 55.9 243 65.2 230.9 62.8 229.1 54.9 239.3 54 240.5 52.1 243 49 247 49.9 250.8"/>
  </g>
  <path class="st1" d="M58,60c32,0,58,26,58,58s-26,58-58,58S0,150,0,118s26-58,58-58h0Z"/>
  <path class="st1" d="M40,168c0,12,2.7,18,8,18s8-4.7,8-14c-5.3,4-10.7,2.7-16-4h0Z"/>
  <circle class="st3" cx="58" cy="52" r="52"/>
  <path class="st6" d="M58,0c28.7,0,52,23.3,52,52s-23.3,52-52,52S6,80.7,6,52,29.3,0,58,0"/>
  <circle class="st2" cx="38" cy="32" r="12"/>
</svg>