<?xml version="1.0" encoding="UTF-8"?>
<svg id="Livello_1" xmlns="http://www.w3.org/2000/svg" version="1.1" viewBox="0 0 104 298">
  <!-- Generator: Adobe Illustrator 30.5.1, SVG Export Plug-In . SVG Version: 2.1.4 Build 3)  -->
  <defs>
    <style>
      .st0 {
        fill: #c75f2e;
      }

      .st1 {
        fill: #3a3070;
      }

      .st2 {
        opacity: .5;
      }

      .st3 {
        fill: #e0703a;
      }

      .st4 {
        fill: #769353;
      }

      .st5 {
        fill: #c25e2c;
      }

      .st6 {
        fill: #6356a6;
        isolation: isolate;
        opacity: .6;
      }
    </style>
  </defs>
  <path class="st3" d="M84,174l-2,8.5-26,111.5c-2.7,5.3-5.3,5.3-8,0l-9.8-42.1-.8-3.4-4-17-.9-4-1.1-4.8-.8-3.4-8.6-36.9-2-8.5h64Z"/>
  <path class="st0" d="M52,174h32l-28,120c-2.7,5.3-5.3,5.3-8,0l4-120Z"/>
  <g class="st2">
    <rect class="st0" x="44.5" y="180.5" width="3" height="50.9" transform="translate(-132.2 92.9) rotate(-45)"/>
    <polygon class="st0" points="65.1 189.1 31.4 222.8 30.6 219.3 62.9 186.9 65.1 189.1"/>
    <polygon class="st0" points="61.1 254.9 58.9 257.1 33.4 231.6 32.5 227.5 33.1 226.9 61.1 254.9"/>
    <polygon class="st0" points="38.2 251.9 46 244.1 48.1 242 49.8 240.3 61.1 229.1 58.9 226.9 49.9 235.9 46 239.9 43.9 242 37.4 248.5 38.2 251.9"/>
  </g>
  <path class="st4" d="M52,88c28.7,0,52,23.3,52,52s-23.3,52-52,52S0,168.7,0,140s23.3-52,52-52h0Z"/>
  <path class="st5" d="M52,46c26.5,0,48,21.5,48,48s-21.5,48-48,48S4,120.5,4,94s21.5-48,48-48"/>
  <path class="st1" d="M52,0c25.4,0,46,20.6,46,46s-20.6,46-46,46S6,71.4,6,46,26.6,0,52,0"/>
  <circle class="st6" cx="34" cy="30" r="10"/>
</svg>