<?xml version="1.0" encoding="UTF-8"?>
<svg id="Livello_1" xmlns="http://www.w3.org/2000/svg" version="1.1" viewBox="0 0 124 164">
  <!-- Generator: Adobe Illustrator 30.5.1, SVG Export Plug-In . SVG Version: 2.1.4 Build 3)  -->
  <defs>
    <style>
      .st0 {
        fill: #22a0a5;
      }

      .st1 {
        fill: #f5f1fa;
      }

      .st2 {
        fill: #2bc4c9;
      }

      .st3 {
        fill: #5dd7db;
        isolation: isolate;
        opacity: .6;
      }

      .st4 {
        fill: #dce3f0;
      }
    </style>
  </defs>
  <path class="st0" d="M62,0c32,0,58,26,58,58s-26,58-58,58S4,90,4,58,30,0,62,0"/>
  <path class="st1" d="M2,98h120l-14,56c-1.3,6.7-5.3,10-12,10H28c-6.7,0-10.7-3.3-12-10L2,98Z"/>
  <path class="st2" d="M2,98h120l-5,22H7l-5-22Z"/>
  <path class="st1" d="M7,120h110l-5,22H12l-5-22Z"/>
  <path class="st2" d="M12,142h100l-4,12c-1.3,6.7-5.3,10-12,10H28c-6.7,0-10.7-3.3-12-10l-4-12Z"/>
  <path class="st4" d="M7,90h110c3.9,0,7,3.1,7,7h0c0,3.9-3.1,7-7,7H7c-3.9,0-7-3.1-7-7h0c0-3.9,3.1-7,7-7Z"/>
  <circle class="st3" cx="40" cy="36" r="13"/>
  <path class="st0" d="M86.2,83.2c0,12,2.7,18,8,18s7.3-4.7,6-14c-4.7,4-9.3,2.7-14-4"/>
</svg>