<?xml version="1.0" encoding="UTF-8"?>
<svg id="Livello_1" xmlns="http://www.w3.org/2000/svg" version="1.1" viewBox="0 0 146.3 160">
  <!-- Generator: Adobe Illustrator 30.5.1, SVG Export Plug-In . SVG Version: 2.1.4 Build 3)  -->
  <defs>
    <style>
      .st0 {
        fill: #e36fa8;
      }

      .st0, .st1 {
        isolation: isolate;
        opacity: .6;
      }

      .st2 {
        fill: #3a3070;
      }

      .st3 {
        fill: #f5f1fa;
      }

      .st4 {
        fill: #d6418c;
      }

      .st5 {
        fill: #dce3f0;
      }

      .st1 {
        fill: #6356a6;
      }

      .st6 {
        fill: #b6326f;
      }
    </style>
  </defs>
  <path class="st2" d="M52,0c28.7,0,52,23.3,52,52s-23.3,52-52,52S0,80.7,0,52,23.3,0,52,0"/>
  <circle class="st1" cx="34" cy="34" r="11"/>
  <path class="st6" d="M98.3,8c26.5,0,48,21.5,48,48s-21.5,48-48,48-48-21.5-48-48S71.8,8,98.3,8"/>
  <circle class="st0" cx="88" cy="38.9" r="10.3"/>
  <path class="st3" d="M9,95h130l-15,55c-1.3,6.7-5.3,10-12,10H36c-6.7,0-10.7-3.3-12-10l-15-55Z"/>
  <path class="st4" d="M9,95h130l-5,23H14l-5-23Z"/>
  <path class="st3" d="M14,118h120l-6,22H20l-6-22Z"/>
  <path class="st4" d="M20,140h108l-4,10c-1.3,6.7-5.3,10-12,10H36c-6.7,0-10.7-3.3-12-10l-4-10Z"/>
  <path class="st5" d="M14,87h120c3.9,0,7,3.1,7,7h0c0,3.9-3.1,7-7,7H14c-3.9,0-7-3.1-7-7h0c0-3.9,3.1-7,7-7Z"/>
  <path class="st6" d="M127.6,79.4c1.3,12-.7,18-6,18s-7.3-4.7-6-14c4,5.3,8,4,12-4"/>
</svg>