<?xml version="1.0" encoding="UTF-8"?>
<svg id="Livello_1" xmlns="http://www.w3.org/2000/svg" version="1.1" viewBox="0 0 161 186.4">
  <!-- Generator: Adobe Illustrator 30.5.1, SVG Export Plug-In . SVG Version: 2.1.4 Build 3)  -->
  <defs>
    <style>
      .st0 {
        fill: #22a0a5;
      }

      .st1 {
        fill: #eba058;
      }

      .st1, .st2 {
        isolation: isolate;
        opacity: .6;
      }

      .st2 {
        fill: #a8c488;
      }

      .st3 {
        fill: #f5f1fa;
      }

      .st4 {
        fill: #8fae6b;
      }

      .st5 {
        fill: #dce3f0;
      }

      .st6 {
        fill: #e0703a;
      }

      .st7 {
        fill: #769353;
      }

      .st8 {
        fill: #c25e2c;
      }

      .st9 {
        fill: #74c4c4;
      }
    </style>
  </defs>
  <circle class="st4" cx="46" cy="79.4" r="46"/>
  <path class="st7" d="M46,33.4c25.4,0,46,20.6,46,46s-20.6,46-46,46S0,104.8,0,79.4s20.6-46,46-46"/>
  <circle class="st2" cx="30" cy="63.4" r="10"/>
  <path class="st0" d="M90,0c27.6,0,50,22.4,50,50s-22.4,50-50,50-50-22.4-50-50S62.4,0,90,0"/>
  <path class="st8" d="M113.5,38.9c26.2,0,47.5,21.3,47.5,47.5s-21.3,47.5-47.5,47.5-47.5-21.3-47.5-47.5,21.3-47.5,47.5-47.5"/>
  <circle class="st1" cx="101.7" cy="69.8" r="9.7"/>
  <circle class="st9" cx="69.4" cy="29.1" r="9.7"/>
  <path class="st3" d="M9,121.4h150l-17,55c-1.3,6.7-5.3,10-12,10H38c-6.7,0-10.7-3.3-12-10l-17-55Z"/>
  <path class="st6" d="M9,121.4h150l-6,22H15l-6-22Z"/>
  <path class="st3" d="M15,143.4h138l-7,22H22l-7-22Z"/>
  <path class="st6" d="M22,165.4h124l-4,11c-1.3,6.7-5.3,10-12,10H38c-6.7,0-10.7-3.3-12-10l-4-11Z"/>
  <path class="st5" d="M14,113.4h140c3.9,0,7,3.1,7,7h0c0,3.9-3.1,7-7,7H14c-3.9,0-7-3.1-7-7h0c0-3.9,3.1-7,7-7Z"/>
</svg>